<svg width="41" height="46" viewBox="0 0 41 46" fill="none" xmlns="http://www.w3.org/2000/svg">
<path d="M18.5741 36.4437C18.5886 36.0643 18.2923 35.7453 17.9129 35.7309C8.94545 35.3982 1.74796 28.2131 1.39877 19.2463H4.12422C4.50362 19.2463 4.81156 18.9384 4.81156 18.559C4.81156 18.1796 4.50362 17.8716 4.12422 17.8716H1.39877C1.74248 8.92072 8.92064 1.74321 17.8716 1.3995V3.43688C17.8716 3.81627 18.1795 4.12422 18.5589 4.12422C18.9383 4.12422 19.2463 3.81627 19.2463 3.43688V1.3995C28.0748 1.74111 35.2008 8.73239 35.7101 17.5527L33.0294 14.8719C32.7565 14.608 32.3214 14.6155 32.0574 14.8891C31.8004 15.1558 31.8004 15.5778 32.0574 15.8439L35.8943 19.6807C35.9665 19.7681 36.06 19.8361 36.1651 19.878C36.192 19.8862 36.2194 19.8924 36.2469 19.8979C36.2943 19.9151 36.3432 19.9267 36.3926 19.933C36.3995 19.933 36.4057 19.933 36.4125 19.933C36.4194 19.933 36.4256 19.933 36.4318 19.933C36.484 19.9288 36.5356 19.9185 36.5857 19.9027C36.6139 19.8993 36.6421 19.8938 36.6696 19.887C36.7623 19.8539 36.8476 19.801 36.9177 19.7316L40.8069 15.8438C41.0709 15.5709 41.0633 15.1358 40.7897 14.8718C40.523 14.6148 40.101 14.6148 39.835 14.8718L37.0875 17.6172C36.597 7.76457 28.4729 0.0240848 18.6078 0.00958559C18.5906 0.00894118 18.5761 0 18.559 0C18.5418 0 18.5273 0.00894118 18.5102 0.00958559C8.29862 0.0233598 0.0233598 8.29862 0.00958559 18.5102C0.00958559 18.5273 0 18.5418 0 18.559C0 18.5761 0.00894118 18.5906 0.00958559 18.6078C0.026743 28.5678 7.90884 36.7345 17.862 37.1049H17.8874C18.2565 37.1049 18.5604 36.8128 18.5741 36.4437Z" fill="#FF9513"/>
<path d="M27.7938 9.32419C27.5257 9.05612 27.0899 9.05612 26.8218 9.32419L19.4354 16.71C18.8772 16.4612 18.2401 16.4612 17.6819 16.71L14.1845 13.2126C13.9116 12.9487 13.4765 12.9562 13.2126 13.2298C12.9555 13.4965 12.9555 13.9185 13.2126 14.1846L16.703 17.675C16.2129 18.7012 16.6473 19.9296 17.6736 20.4197C18.4613 20.7957 19.4003 20.6349 20.0168 20.0176C20.6368 19.4024 20.7969 18.4607 20.4141 17.6757L27.7937 10.2961C28.0618 10.0281 28.0618 9.59227 27.7938 9.32419ZM19.045 19.0449C18.7734 19.3048 18.3446 19.3048 18.073 19.0449C17.8042 18.7769 17.8042 18.3411 18.073 18.073C18.3418 17.8049 18.7769 17.8042 19.045 18.073C19.3137 18.3411 19.3137 18.7762 19.045 19.0449Z" fill="#FF9513"/>
<path d="M33.5142 36.4086H25.6431V34.9242H28.6705V25.1781H25.6431V23.85C26.0533 23.85 26.4927 23.8174 26.9615 23.7523C27.4302 23.6807 27.7851 23.5798 28.0259 23.4496C28.3254 23.2868 28.5598 23.0817 28.7291 22.8344C28.9049 22.5804 29.0058 22.2419 29.0318 21.8187H30.5455V34.9242H33.5142V36.4086Z" fill="#FF9513"/>
</svg>
