<svg width="47" height="33" viewBox="0 0 47 33" fill="none" xmlns="http://www.w3.org/2000/svg">
<path d="M22.7764 8.75935C23.2577 8.72252 23.7412 8.72252 24.2225 8.75935H24.2836C24.7162 8.77578 25.0802 8.4384 25.0967 8.00578C25.1131 7.57316 24.7757 7.20912 24.3431 7.19268C23.7815 7.1496 23.2174 7.1496 22.6558 7.19268C22.2271 7.22919 21.9081 7.60457 21.9413 8.03351C21.9744 8.46245 22.3473 8.78439 22.7764 8.75465V8.75935Z" fill="#FF9513"/>
<path d="M17.7451 10.5132C17.9021 10.5132 18.0555 10.466 18.1853 10.3777C18.3838 10.2424 18.5885 10.1135 18.7995 9.99073C19.0104 9.86801 19.224 9.75547 19.4402 9.65311C19.7068 9.54094 19.8899 9.29099 19.9164 9.00297C19.943 8.71496 19.8087 8.43576 19.5671 8.27676C19.3254 8.11775 19.0159 8.10482 18.7619 8.24312C18.5104 8.36375 18.2613 8.49535 18.0169 8.63478C17.7725 8.77422 17.5328 8.92697 17.3025 9.08363C17.0185 9.27743 16.8941 9.63376 16.9957 9.96221C17.0974 10.2907 17.4013 10.5145 17.7451 10.514V10.5132Z" fill="#FF9513"/>
<path d="M14.4504 11.935C14.2937 12.1653 14.1433 12.405 14.0023 12.6486C13.8613 12.8922 13.729 13.1429 13.6107 13.3943C13.4488 13.779 13.617 14.2231 13.9931 14.404C14.3692 14.5849 14.8211 14.4392 15.0207 14.0727C15.1249 13.8565 15.2369 13.6434 15.3591 13.4311C15.4813 13.2188 15.6097 13.016 15.7453 12.8178C15.989 12.4602 15.8968 11.9727 15.5392 11.7289C15.1817 11.4852 14.6942 11.5774 14.4504 11.935Z" fill="#FF9513"/>
<path d="M14.1269 18.8549C14.1086 18.6168 14.0995 18.3758 14.0995 18.1319C14.0995 17.888 14.1086 17.647 14.1269 17.4089C14.1508 17.1286 14.0225 16.857 13.7908 16.6974C13.5592 16.5378 13.2597 16.5146 13.0063 16.6368C12.7528 16.7589 12.5844 17.0076 12.5649 17.2883C12.5435 17.5671 12.5328 17.8483 12.5328 18.1319C12.5328 18.4155 12.5435 18.6967 12.5649 18.9755C12.5965 19.3845 12.9381 19.6998 13.3483 19.6986H13.4094C13.8404 19.6636 14.1616 19.286 14.1269 18.8549Z" fill="#FF9513"/>
<path d="M15.3583 22.8319C15.2371 22.6204 15.1246 22.4068 15.0207 22.1911C14.9085 21.9245 14.6585 21.7415 14.3705 21.7149C14.0825 21.6884 13.8033 21.8227 13.6443 22.0643C13.4853 22.3059 13.4724 22.6155 13.6107 22.8695C13.7313 23.121 13.8629 23.3701 14.0023 23.6145C14.1418 23.8589 14.2945 24.0986 14.4512 24.3289C14.7006 24.6703 15.1761 24.7522 15.5254 24.5138C15.8746 24.2754 15.9716 23.8027 15.7445 23.446C15.6097 23.2455 15.481 23.0408 15.3583 22.8319Z" fill="#FF9513"/>
<path d="M19.4402 26.6107C19.224 26.5065 19.011 26.3945 18.7987 26.2723C18.5864 26.1501 18.3835 26.0216 18.1853 25.8861C17.8278 25.6423 17.3403 25.7346 17.0965 26.0921C16.8527 26.4497 16.945 26.9372 17.3025 27.181C17.5328 27.3376 17.7725 27.488 18.0161 27.629C18.2597 27.77 18.5104 27.9024 18.7619 28.0207C19.0159 28.159 19.3254 28.1461 19.5671 27.9871C19.8087 27.828 19.943 27.5488 19.9164 27.2608C19.8899 26.9728 19.7068 26.7229 19.4402 26.6107Z" fill="#FF9513"/>
<path d="M24.2225 27.5045C23.7412 27.5413 23.2577 27.5413 22.7764 27.5045C22.4961 27.4806 22.2245 27.6089 22.0649 27.8406C21.9053 28.0722 21.8822 28.3717 22.0043 28.6251C22.1265 28.8785 22.3752 29.047 22.6558 29.0664C22.9347 29.0879 23.2159 29.0986 23.4995 29.0986C23.783 29.0986 24.0642 29.0879 24.3431 29.0664C24.6238 29.047 24.8724 28.8785 24.9946 28.6251C25.1167 28.3717 25.0936 28.0722 24.934 27.8406C24.7744 27.6089 24.5028 27.4806 24.2225 27.5045Z" fill="#FF9513"/>
<path d="M28.8136 25.8869C28.6151 26.0227 28.4104 26.1517 28.1994 26.2739C27.9885 26.3961 27.7749 26.5086 27.5587 26.6115C27.2921 26.7236 27.109 26.9736 27.0824 27.2616C27.0559 27.5496 27.1902 27.8288 27.4318 27.9878C27.6734 28.1468 27.983 28.1598 28.237 28.0215C28.4885 27.9008 28.7376 27.7692 28.982 27.6298C29.2264 27.4904 29.4661 27.3376 29.6964 27.1809C30.0469 26.9346 30.1345 26.4525 29.8931 26.0986C29.6517 25.7447 29.1708 25.6504 28.8136 25.8869Z" fill="#FF9513"/>
<path d="M33.024 21.8237C32.8366 21.7337 32.6211 21.7218 32.425 21.7907C32.2288 21.8596 32.0681 22.0036 31.9782 22.1911C31.8741 22.4073 31.762 22.6204 31.6398 22.8327C31.5176 23.0449 31.3892 23.2478 31.2537 23.446C31.0099 23.8036 31.1021 24.2911 31.4597 24.5348C31.8172 24.7786 32.3047 24.6864 32.5485 24.3288C32.7052 24.0985 32.8556 23.8588 32.9966 23.6152C33.1376 23.3716 33.27 23.1209 33.3882 22.8695C33.5763 22.4801 33.4132 22.012 33.024 21.8237Z" fill="#FF9513"/>
<path d="M32.872 17.4089C32.8903 17.647 32.8994 17.888 32.8994 18.1319C32.8994 18.3758 32.8903 18.6168 32.872 18.8549C32.8554 19.0624 32.922 19.268 33.0572 19.4263C33.1924 19.5846 33.3851 19.6826 33.5927 19.6986H33.6538C34.0639 19.6998 34.4055 19.3845 34.4371 18.9755C34.4564 18.6967 34.4661 18.4155 34.4661 18.1319C34.4661 17.8483 34.4554 17.5671 34.434 17.2883C34.3975 16.8596 34.0221 16.5406 33.5932 16.5737C33.1642 16.6068 32.8423 16.9797 32.872 17.4089Z" fill="#FF9513"/>
<path d="M31.4597 11.7297C31.1025 11.9734 31.0102 12.4604 31.2536 12.8178C31.3894 13.0162 31.5184 13.221 31.6406 13.4319C31.7628 13.6429 31.8753 13.8565 31.9782 14.0727C32.0904 14.3393 32.3404 14.5224 32.6284 14.5489C32.9164 14.5754 33.1956 14.4411 33.3546 14.1995C33.5136 13.9579 33.5265 13.6484 33.3882 13.3943C33.2676 13.1429 33.136 12.8938 32.9966 12.6494C32.8571 12.405 32.7044 12.1653 32.5477 11.935C32.3038 11.5781 31.8168 11.4862 31.4597 11.7297Z" fill="#FF9513"/>
<path d="M28.9828 8.63478C28.7373 8.49326 28.4887 8.36271 28.237 8.24312C27.983 8.10482 27.6734 8.11775 27.4318 8.27676C27.1902 8.43576 27.0559 8.71496 27.0824 9.00298C27.109 9.29099 27.2921 9.54094 27.5587 9.65312C27.7749 9.7573 27.9879 9.86932 28.2002 9.99152C28.4125 10.1137 28.6154 10.2422 28.8136 10.3777C29.1711 10.6215 29.6586 10.5292 29.9024 10.1717C30.1462 9.81412 30.0539 9.32663 29.6964 9.08285C29.4661 8.92618 29.2279 8.77578 28.9828 8.63478Z" fill="#FF9513"/>
<path d="M46.99 4.26693C47.0554 3.39765 46.7557 2.54042 46.1629 1.90125C45.5701 1.26209 44.7378 0.898768 43.8661 0.898608H33.1814C32.2779 0.897438 31.4179 1.28634 30.822 1.96551L28.2715 4.88107C25.1909 3.74887 21.808 3.74887 18.7274 4.88107L16.1761 1.96394C15.5798 1.28598 14.7203 0.89778 13.8175 0.898608H3.13283C1.60486 0.89016 0.296294 1.99115 0.0432948 3.49805C-0.209705 5.00495 0.667547 6.47292 2.1145 6.96395C1.71346 7.54816 1.52363 8.25166 1.57635 8.95831C1.71166 10.4513 2.86949 11.6479 4.35718 11.8324C4.02886 12.3821 3.87864 13.0199 3.92713 13.6583C4.08606 15.3287 5.50415 16.5953 7.18187 16.5652H9.49192C8.87184 21.9539 11.3979 27.2205 15.9884 30.11C20.5789 32.9994 26.42 32.9994 31.0105 30.11C35.601 27.2205 38.1271 21.9539 37.507 16.5652H39.817C41.4923 16.5965 42.9102 15.3346 43.0733 13.6669C43.122 13.0266 42.9715 12.3869 42.6425 11.8355C44.1288 11.6524 45.2865 10.4581 45.4233 8.96693C45.4774 8.25879 45.2878 7.55343 44.886 6.96786C46.0598 6.56298 46.8846 5.50416 46.99 4.26693ZM7.18187 14.9986C6.32737 15.0214 5.59472 14.3928 5.48752 13.5447C5.4505 13.0907 5.61728 12.6438 5.94264 12.3251C6.23507 12.0297 6.63383 11.864 7.04949 11.8653H8.61615C9.04877 11.8653 9.39948 11.5145 9.39948 11.0819C9.39948 10.6493 9.04877 10.2986 8.61615 10.2986H4.83188C3.97764 10.3215 3.2451 9.69325 3.13753 8.84551C3.10051 8.39146 3.26694 7.94439 3.59186 7.62508C3.88463 7.32971 4.28361 7.16408 4.69949 7.16526H11.7495C12.1821 7.16526 12.5328 6.81455 12.5328 6.38193C12.5328 5.94931 12.1821 5.5986 11.7495 5.5986H3.26521C2.41085 5.62186 1.67809 4.99344 1.57087 4.14552C1.53385 3.69146 1.70028 3.2444 2.0252 2.92509C2.31797 2.62972 2.71695 2.46409 3.13283 2.46527H13.8175C14.269 2.46458 14.699 2.65804 14.998 2.99637L17.2132 5.52888C13.4414 7.41583 10.7092 10.8886 9.76295 14.9986H7.18187ZM23.4995 30.6652C16.5775 30.6652 10.9661 25.0539 10.9661 18.1319C10.9661 11.21 16.5775 5.5986 23.4995 5.5986C30.4214 5.5986 36.0328 11.21 36.0328 18.1319C36.0246 25.0505 30.418 30.657 23.4995 30.6652ZM43.7337 5.5986H35.2494C34.8168 5.5986 34.4661 5.94931 34.4661 6.38193C34.4661 6.81455 34.8168 7.16526 35.2494 7.16526H42.2994C42.7353 7.16554 43.1514 7.3474 43.4476 7.66714C43.7439 7.98687 43.8935 8.41557 43.8606 8.85021C43.7509 9.69577 43.0194 10.3213 42.167 10.2986H38.3828C37.9501 10.2986 37.5994 10.6493 37.5994 11.0819C37.5994 11.5145 37.9501 11.8653 38.3828 11.8653H39.9494C40.365 11.8644 40.7636 12.03 41.0563 12.3251C41.3823 12.6459 41.5485 13.0952 41.5098 13.551C41.4004 14.3963 40.6691 15.0217 39.817 14.9986H37.232C36.2858 10.8886 33.5536 7.41583 29.7818 5.52888L31.9963 2.99794C32.2959 2.65762 32.728 2.46342 33.1814 2.46527H43.8661C44.3021 2.46554 44.7183 2.6475 45.0146 2.96741C45.3109 3.28732 45.4604 3.71623 45.4273 4.151C45.3175 4.99644 44.5859 5.62176 43.7337 5.5986Z" fill="#FF9513"/>
</svg>
