<svg width="33" height="39" viewBox="0 0 33 39" fill="none" xmlns="http://www.w3.org/2000/svg">
<path d="M11.3955 32.0861C11.0396 32.0861 10.6917 32.1916 10.3958 32.3894C10.0999 32.5871 9.86932 32.8681 9.73314 33.1969C9.59696 33.5256 9.56132 33.8874 9.63075 34.2364C9.70018 34.5855 9.87154 34.9061 10.1232 35.1577C10.3748 35.4093 10.6954 35.5807 11.0444 35.6501C11.3935 35.7195 11.7552 35.6839 12.084 35.5477C12.4128 35.4115 12.6938 35.1809 12.8915 34.885C13.0892 34.5891 13.1947 34.2413 13.1947 33.8854C13.1947 33.4082 13.0052 32.9506 12.6677 32.6131C12.3303 32.2757 11.8727 32.0861 11.3955 32.0861ZM11.3955 34.4852C11.2768 34.4852 11.1609 34.45 11.0622 34.3841C10.9636 34.3182 10.8867 34.2245 10.8414 34.1149C10.796 34.0053 10.7841 33.8847 10.8072 33.7684C10.8304 33.6521 10.8875 33.5452 10.9714 33.4613C11.0552 33.3774 11.1621 33.3203 11.2785 33.2972C11.3948 33.274 11.5154 33.2859 11.625 33.3313C11.7346 33.3767 11.8282 33.4536 11.8941 33.5522C11.96 33.6508 11.9952 33.7668 11.9952 33.8854C11.9952 34.0445 11.932 34.197 11.8196 34.3095C11.7071 34.422 11.5545 34.4852 11.3955 34.4852Z" fill="#FF9513"/>
<path d="M29.3883 10.4947H27.589V11.6943H29.3883C29.8655 11.6943 30.3231 11.8838 30.6606 12.2213C30.998 12.5587 31.1876 13.0163 31.1876 13.4935V24.2892C31.1876 24.7664 30.998 25.2241 30.6606 25.5615C30.3231 25.899 29.8655 26.0885 29.3883 26.0885H12.595C12.1178 26.0885 11.6601 25.899 11.3227 25.5615C10.9853 25.2241 10.7957 24.7664 10.7957 24.2892V13.4935C10.7957 13.0163 10.9853 12.5587 11.3227 12.2213C11.6601 11.8838 12.1178 11.6943 12.595 11.6943H22.0712C20.1315 13.0368 17.8815 13.8625 15.5338 14.0933L15.6538 15.2928C17.635 15.1001 19.5583 14.5164 21.3125 13.5754C23.0666 12.6345 24.6167 11.355 25.8731 9.81101L26.3895 9.17526V9.89497H27.589V7.49593C27.589 7.33686 27.5258 7.18431 27.4133 7.07184C27.3009 6.95936 27.1483 6.89617 26.9892 6.89617H24.5902V8.09569H25.7231L24.9435 9.04811C24.5162 9.56263 24.0528 10.0461 23.5568 10.4947H12.595C11.7999 10.4957 11.0377 10.8119 10.4756 11.3741C9.91338 11.9363 9.59713 12.6985 9.59618 13.4935V24.2892C9.59713 25.0843 9.91338 25.8465 10.4756 26.4087C11.0377 26.9708 11.7999 27.2871 12.595 27.288H21.5914V29.6871H1.19952V6.89617H21.5914V9.89497H22.7909V3.89736C22.79 3.10232 22.4737 2.34012 21.9115 1.77794C21.3494 1.21576 20.5872 0.899512 19.7921 0.89856H2.9988C2.20376 0.899512 1.44156 1.21576 0.879381 1.77794C0.317203 2.34012 0.000952335 3.10232 0 3.89736V35.0849C0.000952335 35.88 0.317203 36.6422 0.879381 37.2044C1.44156 37.7665 2.20376 38.0828 2.9988 38.0837H19.7921C20.5872 38.0828 21.3494 37.7665 21.9115 37.2044C22.4737 36.6422 22.79 35.88 22.7909 35.0849V27.288H29.3883C30.1833 27.2871 30.9455 26.9708 31.5077 26.4087C32.0699 25.8465 32.3861 25.0843 32.3871 24.2892V13.4935C32.3861 12.6985 32.0699 11.9363 31.5077 11.3741C30.9455 10.8119 30.1833 10.4957 29.3883 10.4947ZM2.9988 2.09808H19.7921C20.2693 2.09808 20.727 2.28765 21.0644 2.62508C21.4018 2.96251 21.5914 3.42016 21.5914 3.89736V5.69665H1.19952V3.89736C1.19952 3.42016 1.38909 2.96251 1.72652 2.62508C2.06395 2.28765 2.52161 2.09808 2.9988 2.09808ZM19.7921 36.8842H2.9988C2.52161 36.8842 2.06395 36.6947 1.72652 36.3572C1.38909 36.0198 1.19952 35.5621 1.19952 35.0849V30.8866H21.5914V35.0849C21.5914 35.5621 21.4018 36.0198 21.0644 36.3572C20.727 36.6947 20.2693 36.8842 19.7921 36.8842Z" fill="#FF9513"/>
<path d="M11.9952 12.8938V24.2892C11.9952 24.4483 12.0584 24.6008 12.1709 24.7133C12.2834 24.8258 12.4359 24.889 12.595 24.889H29.9881V23.6895H13.1947V12.8938H11.9952Z" fill="#FF9513"/>
<path d="M27.589 15.8926H26.9892V14.6931H25.7897V15.8926H25.19C25.0309 15.8926 24.8783 15.9558 24.7659 16.0682C24.6534 16.1807 24.5902 16.3333 24.5902 16.4923V18.8914C24.5902 19.0504 24.6534 19.203 24.7659 19.3155C24.8783 19.428 25.0309 19.4911 25.19 19.4911H25.7897V20.6907H26.9892V19.4911H27.589C27.7481 19.4911 27.9006 19.428 28.0131 19.3155C28.1256 19.203 28.1888 19.0504 28.1888 18.8914V16.4923C28.1888 16.3333 28.1256 16.1807 28.0131 16.0682C27.9006 15.9558 27.7481 15.8926 27.589 15.8926ZM26.9892 18.2916H25.7897V17.0921H26.9892V18.2916Z" fill="#FF9513"/>
<path d="M20.9916 15.8926V17.0921H20.3919C20.2328 17.0921 20.0803 17.1553 19.9678 17.2678C19.8553 17.3802 19.7921 17.5328 19.7921 17.6919V20.0909C19.7921 20.25 19.8553 20.4025 19.9678 20.515C20.0803 20.6275 20.2328 20.6907 20.3919 20.6907H20.9916V21.8902H22.1912V20.6907H22.7909C22.95 20.6907 23.1025 20.6275 23.215 20.515C23.3275 20.4025 23.3907 20.25 23.3907 20.0909V17.6919C23.3907 17.5328 23.3275 17.3802 23.215 17.2678C23.1025 17.1553 22.95 17.0921 22.7909 17.0921H22.1912V15.8926H20.9916ZM22.1912 19.4911H20.9916V18.2916H22.1912V19.4911Z" fill="#FF9513"/>
<path d="M16.1935 17.0921V18.2916H15.5938C15.4347 18.2916 15.2822 18.3548 15.1697 18.4673C15.0572 18.5798 14.994 18.7323 14.994 18.8914V21.2904C14.994 21.4495 15.0572 21.602 15.1697 21.7145C15.2822 21.827 15.4347 21.8902 15.5938 21.8902H16.1935V23.0897H17.3931V21.8902H17.9928C18.1519 21.8902 18.3044 21.827 18.4169 21.7145C18.5294 21.602 18.5926 21.4495 18.5926 21.2904V18.8914C18.5926 18.7323 18.5294 18.5798 18.4169 18.4673C18.3044 18.3548 18.1519 18.2916 17.9928 18.2916H17.3931V17.0921H16.1935ZM17.3931 20.6907H16.1935V19.4911H17.3931V20.6907Z" fill="#FF9513"/>
<path d="M5.39785 8.09567H2.99881C2.83974 8.09567 2.68719 8.15886 2.57471 8.27134C2.46224 8.38382 2.39905 8.53637 2.39905 8.69543V11.0945H3.59857V9.29519H5.39785V8.09567Z" fill="#FF9513"/>
<path d="M2.39905 25.4887V27.8878C2.39905 28.0468 2.46224 28.1994 2.57471 28.3119C2.68719 28.4244 2.83974 28.4875 2.99881 28.4875H5.39785V27.288H3.59857V25.4887H2.39905Z" fill="#FF9513"/>
</svg>
