<svg width="117" height="27" viewBox="0 0 117 27" fill="none" xmlns="http://www.w3.org/2000/svg">
<path d="M43.4162 19.5215C46.8194 19.5215 48.8173 17.6084 48.8173 14.2845V8.18718H45.1385V14.1675C45.1385 15.8604 44.4909 16.4935 43.4437 16.4935C42.3965 16.4935 41.749 15.8604 41.749 14.1675V8.18718H38.0081V14.2776C38.0081 17.6015 40.006 19.5215 43.4162 19.5215ZM55.0796 19.4252C57.1877 19.4252 58.7722 18.4617 59.3441 16.8583L56.5677 15.4957C56.2026 16.3008 55.679 16.638 55.0658 16.638C54.2598 16.638 53.5915 16.0668 53.5915 14.9313C53.5915 13.8096 54.2598 13.2384 55.0658 13.2384C55.6859 13.2384 56.2095 13.5688 56.5677 14.3808L59.3441 13.0182C58.7722 11.4216 57.1877 10.4513 55.0796 10.4513C52.0828 10.4513 49.9609 12.3025 49.9609 14.9313C49.9609 17.574 52.0828 19.4252 55.0796 19.4252ZM64.0494 10.4513C62.706 10.4513 61.1628 10.8023 60.1501 11.4354L61.2937 13.7958C61.8655 13.3692 62.7336 13.1146 63.512 13.1146C64.5248 13.1146 65.0346 13.4655 65.1448 14.1262H63.7049C61.0112 14.1262 59.7436 15.0621 59.7436 16.7413C59.7436 18.2277 60.839 19.432 62.9609 19.432C64.1803 19.432 65.007 19.0054 65.4204 18.1314V19.2669H68.7479V14.6148C68.741 11.7313 67.0324 10.4513 64.0494 10.4513ZM64.0356 17.2712C63.4983 17.2712 63.1814 16.9684 63.1814 16.5761C63.1814 16.1013 63.512 15.8466 64.2767 15.8466H65.1655V16.4453C64.9726 17.0165 64.5248 17.2712 64.0356 17.2712ZM76.0711 10.4513C74.9964 10.4513 74.2179 10.7334 73.6943 11.3253V10.6096H70.291V22.3362H73.8734V18.6819C74.397 19.1912 75.1273 19.4252 76.078 19.4252C78.3446 19.4252 80.2598 17.7322 80.2598 14.9451C80.2598 12.158 78.3377 10.4513 76.0711 10.4513ZM75.2168 16.638C74.4246 16.638 73.8046 16.0668 73.8046 14.9451C73.8046 13.8234 74.4246 13.2384 75.2168 13.2384C76.0091 13.2384 76.6291 13.8234 76.6291 14.9451C76.6291 16.0668 76.0091 16.638 75.2168 16.638ZM83.1739 9.91452C84.4898 9.91452 85.3302 9.12311 85.3302 8.0289C85.3302 7.00352 84.4898 6.27405 83.1739 6.27405C81.8581 6.27405 81.0176 7.06545 81.0176 8.09772C81.0176 9.12999 81.8581 9.91452 83.1739 9.91452ZM81.3827 19.2669H84.9651V10.6096H81.3827V19.2669ZM92.0817 16.4798C91.8406 16.638 91.5581 16.7206 91.2756 16.7206C90.8485 16.7206 90.5316 16.4178 90.5316 15.881V13.6926H92.309V11.0775H90.5316V8.65515H86.9492V11.0775H85.7643V13.6926H86.9492V15.9086C86.9492 18.2965 88.3408 19.4252 90.7383 19.4252C91.5788 19.4252 92.3848 19.2806 92.9428 18.9641L92.0817 16.4798ZM97.724 10.4513C96.3737 10.4513 94.8374 10.8023 93.8247 11.4354L94.9683 13.7958C95.5401 13.3692 96.4081 13.1146 97.1866 13.1146C98.1993 13.1146 98.7091 13.4655 98.8194 14.1262H97.3795C94.6858 14.1262 93.4182 15.0621 93.4182 16.7413C93.4182 18.2277 94.5136 19.432 96.6355 19.432C97.8549 19.432 98.6816 19.0054 99.0949 18.1314V19.2669H102.422V14.6148C102.409 11.7313 100.7 10.4513 97.724 10.4513ZM97.7033 17.2712C97.1659 17.2712 96.849 16.9684 96.849 16.5761C96.849 16.1013 97.1797 15.8466 97.9444 15.8466H98.8331V16.4453C98.6402 17.0165 98.1993 17.2712 97.7033 17.2712ZM103.959 19.2669H107.541V7.51965H103.959V19.2669ZM112.515 19.4252C115.526 19.4252 117 18.0626 117 16.5004C117 13.032 112.026 14.2019 112.026 13.3004C112.026 13.0939 112.281 12.8875 113.197 12.8875C113.927 12.8875 114.816 13.032 115.698 13.5206L116.683 11.1601C115.767 10.6853 114.417 10.4444 113.149 10.4444C110.235 10.4444 108.712 11.7726 108.712 13.4036C108.712 16.872 113.707 15.6815 113.707 16.5692C113.707 16.8238 113.466 16.9821 112.598 16.9821C111.571 16.9821 110.393 16.7 109.573 16.2045L108.588 18.5649C109.477 19.0742 111.027 19.4252 112.515 19.4252Z" fill="#181818"/>
<path d="M16.0316 0.0189045L8.57745 8.84825L6.87581 2.85421C8.05387 1.95269 9.40416 1.22322 10.8991 0.720848C12.5939 0.15654 14.3368 -0.0705589 16.0316 0.0189045Z" fill="#FF9B21"/>
<path d="M23.0586 2.29682L21.0538 4.67792L19.9446 0.769059C21.0469 1.14756 22.0941 1.66369 23.0586 2.29682Z" fill="#FA5E19"/>
<path d="M30.7325 3.83133L23.3128 12.6263L21.0531 4.67779L23.0579 2.29669C24.2635 3.0881 25.3382 4.05843 26.2476 5.20081L30.7325 3.83133Z" fill="#F53314"/>
<path d="M8.57737 8.84839L2.00504 16.6524C0.675423 11.4428 2.69397 6.05439 6.87573 2.85435L8.57737 8.84839Z" fill="#FFB240"/>
<path d="M21.0536 4.67784L10.8368 16.7967L8.57718 8.84821L16.0313 0.0188683C17.3816 0.0808045 18.6975 0.342313 19.9444 0.775866L21.0536 4.67784Z" fill="#FF8314"/>
<path d="M14.7017 26.817L22.1489 17.9807L23.8574 23.9748C22.6794 24.8763 21.3291 25.6058 19.8341 26.1013C18.1325 26.6793 16.3964 26.9064 14.7017 26.817Z" fill="#FA5E19"/>
<path d="M7.66772 24.5384L9.67249 22.1572L10.7817 26.0661C9.68627 25.6876 8.63911 25.1715 7.66772 24.5384Z" fill="#FF9B21"/>
<path d="M3.05176e-05 23.0043L7.41284 14.2094L9.67251 22.151L7.66775 24.5321C6.46213 23.7407 5.38741 22.7703 4.47803 21.628L3.05176e-05 23.0043Z" fill="#FFB240"/>
<path d="M22.149 17.9876L28.7282 10.1836C30.0578 15.3931 28.0393 20.7816 23.8575 23.9816L22.149 17.9876Z" fill="#F53314"/>
<path d="M9.67271 22.1581L19.8894 10.0393L22.1491 17.9878L14.7019 26.8171C13.3516 26.7552 12.0357 26.4937 10.7888 26.0601L9.67271 22.1581Z" fill="#FF8314"/>
</svg>
